<?xml version="1.0" standalone="no"?><svg xmlns="http://www.w3.org/2000/svg" viewBox="0 0 1440 320"><path fill="#3A3B3D" fill-opacity="1" d="M0,224L21.8,229.3C43.6,235,87,245,131,234.7C174.5,224,218,192,262,149.3C305.5,107,349,53,393,64C436.4,75,480,149,524,181.3C567.3,213,611,203,655,170.7C698.2,139,742,85,785,74.7C829.1,64,873,96,916,117.3C960,139,1004,149,1047,138.7C1090.9,128,1135,96,1178,96C1221.8,96,1265,128,1309,160C1352.7,192,1396,224,1418,240L1440,256L1440,320L1418.2,320C1396.4,320,1353,320,1309,320C1265.5,320,1222,320,1178,320C1134.5,320,1091,320,1047,320C1003.6,320,960,320,916,320C872.7,320,829,320,785,320C741.8,320,698,320,655,320C610.9,320,567,320,524,320C480,320,436,320,393,320C349.1,320,305,320,262,320C218.2,320,175,320,131,320C87.3,320,44,320,22,320L0,320Z"></path></svg>