<?xml version="1.0" standalone="no"?><svg xmlns="http://www.w3.org/2000/svg" viewBox="0 0 1440 320"><path fill="#ae1f23" fill-opacity="1" d="M0,192L17.1,186.7C34.3,181,69,171,103,165.3C137.1,160,171,160,206,149.3C240,139,274,117,309,106.7C342.9,96,377,96,411,117.3C445.7,139,480,181,514,213.3C548.6,245,583,267,617,234.7C651.4,203,686,117,720,80C754.3,43,789,53,823,69.3C857.1,85,891,107,926,101.3C960,96,994,64,1029,48C1062.9,32,1097,32,1131,32C1165.7,32,1200,32,1234,80C1268.6,128,1303,224,1337,240C1371.4,256,1406,192,1423,160L1440,128L1440,320L1422.9,320C1405.7,320,1371,320,1337,320C1302.9,320,1269,320,1234,320C1200,320,1166,320,1131,320C1097.1,320,1063,320,1029,320C994.3,320,960,320,926,320C891.4,320,857,320,823,320C788.6,320,754,320,720,320C685.7,320,651,320,617,320C582.9,320,549,320,514,320C480,320,446,320,411,320C377.1,320,343,320,309,320C274.3,320,240,320,206,320C171.4,320,137,320,103,320C68.6,320,34,320,17,320L0,320Z"></path></svg>