<?xml version="1.0" standalone="no"?><svg xmlns="http://www.w3.org/2000/svg" viewBox="0 0 1440 320"><path fill="#f4c109" fill-opacity="1" d="M0,128L21.8,122.7C43.6,117,87,107,131,133.3C174.5,160,218,224,262,224C305.5,224,349,160,393,138.7C436.4,117,480,139,524,160C567.3,181,611,203,655,218.7C698.2,235,742,245,785,218.7C829.1,192,873,128,916,106.7C960,85,1004,107,1047,122.7C1090.9,139,1135,149,1178,165.3C1221.8,181,1265,203,1309,176C1352.7,149,1396,75,1418,37.3L1440,0L1440,320L1418.2,320C1396.4,320,1353,320,1309,320C1265.5,320,1222,320,1178,320C1134.5,320,1091,320,1047,320C1003.6,320,960,320,916,320C872.7,320,829,320,785,320C741.8,320,698,320,655,320C610.9,320,567,320,524,320C480,320,436,320,393,320C349.1,320,305,320,262,320C218.2,320,175,320,131,320C87.3,320,44,320,22,320L0,320Z"></path></svg>